<svg viewBox="0 0 24 24" fill="none" xmlns="http://www.w3.org/2000/svg">
<style>
  @media (prefers-color-scheme: dark) {
    .bg { fill: #FFFFFF; }
    .smile { stroke: #000000; }
  }
  @media (prefers-color-scheme: light) {
    .bg { fill: #000000; }
    .smile { stroke: #FFFFFF; }
  }
</style>
<path class="bg" fill-rule="evenodd" clip-rule="evenodd" d="M14.2943 5.82038e-07H9.70571C8.17952 -2.17435e-05 6.94858 -4.40381e-05 5.98031 0.13132C4.97416 0.267818 4.12756 0.559937 3.45597 1.23761C2.78541 1.91424 2.49729 2.76541 2.3625 3.77706C2.23252 4.75259 2.23254 5.99335 2.23256 7.53458V19.48C2.23251 20.2711 2.23247 20.9523 2.305 21.4737C2.37937 22.0083 2.55904 22.6166 3.13211 22.9857C3.97881 23.5311 4.91722 23.1535 5.44419 22.8778C5.74598 22.72 6.59742 22.1431 6.8327 21.9814C7.13723 21.7893 7.30582 21.6871 7.43208 21.6278C7.4563 21.6018 7.53622 21.5672 7.66219 21.6365C7.78967 21.7004 7.95255 21.8019 8.23709 21.9814L10.4 23.3454C10.6619 23.5106 10.91 23.6671 11.1337 23.7775C11.3834 23.9008 11.6659 24 12 24C12.3341 24 12.6166 23.9008 12.8663 23.7775C13.0899 23.6671 13.338 23.5107 13.5997 23.3456L15.763 21.9814C16.0675 21.7893 16.2361 21.6871 16.3623 21.6278C16.3903 21.604 16.4755 21.5724 16.5924 21.6365C16.6717 21.6762 16.9846 21.8816 17.2783 22.0743C17.4566 22.1913 17.6277 22.3036 17.7352 22.3715C17.9704 22.5331 18.2541 22.72 18.5558 22.8778C19.0828 23.1535 20.0212 23.5311 20.8679 22.9857C21.4409 22.6166 21.6207 22.0083 21.695 21.4737C21.7676 20.9523 21.7674 20.2711 21.7674 19.48V7.53465C21.7674 5.99338 21.7674 4.7526 21.6375 3.77706C21.5027 2.76541 21.2145 1.91424 20.544 1.23761C19.8724 0.559937 19.0259 0.267818 18.0196 0.13132C17.0514 -4.40381e-05 15.8205 -2.17435e-05 14.2943 5.82038e-07Z"/>
<path class="smile" d="M16.101 14.202C15.1659 15.4471 13.677 16.2525 12 16.2525C10.323 16.2525 8.83415 15.4471 7.89898 14.202" stroke-width="2.72093" stroke-linecap="round" stroke-linejoin="round"/>
</svg>
